<svg width="16" height="13" viewBox="0 0 16 13" fill="none" xmlns="http://www.w3.org/2000/svg">
<path d="M0.158203 6.625C0.158203 7.22266 0.623047 7.6875 1.1875 7.6875H11.3809L7.89453 11.207C7.46289 11.6055 7.46289 12.3027 7.89453 12.7012C8.09375 12.9004 8.35938 13 8.625 13C8.92383 13 9.18945 12.9004 9.38867 12.7012L14.7012 7.38867C15.1328 6.99023 15.1328 6.29297 14.7012 5.89453L9.38867 0.582031C8.99023 0.150391 8.29297 0.150391 7.89453 0.582031C7.46289 0.980469 7.46289 1.67773 7.89453 2.07617L11.3809 5.5625H1.1875C0.623047 5.5625 0.158203 6.06055 0.158203 6.625Z" fill="url(#paint0_linear_1_52)"/>
<defs>
<linearGradient id="paint0_linear_1_52" x1="12.8229" y1="29.0889" x2="-4.39289" y2="26.4287" gradientUnits="userSpaceOnUse">
<stop stop-color="#47479F"/>
<stop offset="1" stop-color="#9191D7"/>
</linearGradient>
</defs>
</svg>
