<svg width="1920" height="646" viewBox="0 0 1920 646" fill="none" xmlns="http://www.w3.org/2000/svg">
<path opacity="0.2" d="M1920 5.66211V0C1869.25 53.8259 1839.26 127.577 1799.88 190.146C1774.4 230.57 1743.99 269.846 1703.93 295.218C1655.17 326.109 1601.95 323.529 1547.57 314.498C1498.13 306.327 1448.48 297.655 1399.92 315.43C1355.13 331.771 1317.05 363.952 1284.52 399.429C1247.47 439.853 1216.31 485.651 1179.19 525.931C1143.78 564.347 1102.28 595.31 1054.96 615.593C963.39 654.798 860.524 651.357 774.506 598.965C685.749 544.924 622.947 456.911 542.887 391.259C505.425 360.511 463.923 333.778 417.9 320.017C368.659 305.324 319.144 311.273 269.012 316.576C219.018 321.88 165.256 325.034 121.768 293.856C86.4291 268.484 67.1161 227.058 53.008 186.061C39.1054 145.566 29.3119 103.495 13.4917 63.7166C9.6565 54.1842 5.27341 43.7917 0 33.7576V41.4266C2.32852 46.3003 4.58855 51.2457 6.64312 56.1194C23.9016 96.3275 33.832 139.331 47.5976 180.829C59.6511 217.095 74.855 253.863 101.564 281.099C132.52 312.706 174.022 323.887 216.347 323.672C267.437 323.457 318.048 310.484 369.276 314.426C420.229 318.368 467.69 340.73 509.671 370.187C592.95 428.672 654.382 513.89 734.99 575.815C772.999 604.985 815.255 628.279 861.552 638.815C904.081 648.49 948.323 648.132 990.921 639.316C1035.51 630.142 1078.38 611.723 1116.39 585.634C1157.55 557.395 1190.69 519.695 1222.13 480.419C1287.81 398.354 1360.27 303.174 1473.27 308.119C1526.69 310.484 1579.15 329.406 1632.91 323.815C1674.55 319.515 1711.53 298.587 1742.01 269.273C1808.78 204.983 1839.87 113.457 1893.36 38.6313C1901.58 27.3071 1910.48 16.1263 1920 5.66211Z" fill="#FFCAD4"/>
</svg>
