<svg width="24" height="24" viewBox="0 0 24 24" fill="none" xmlns="http://www.w3.org/2000/svg">
<path d="M21.6948 4.15669C21.6948 4.15669 21.6948 4.16607 21.6948 4.17075L16.2386 22.1651C16.156 22.4574 15.986 22.7174 15.7514 22.9103C15.5168 23.1032 15.2288 23.2197 14.9261 23.2442C14.883 23.2479 14.8398 23.2498 14.7967 23.2498C14.513 23.2507 14.235 23.1704 13.9955 23.0184C13.7559 22.8664 13.5649 22.6491 13.4448 22.392L10.097 15.3242C10.064 15.2543 10.0534 15.1758 10.0666 15.0996C10.0799 15.0234 10.1164 14.9532 10.1711 14.8986L15.5392 9.5295C15.6739 9.38771 15.7479 9.19889 15.7454 9.00332C15.7429 8.80775 15.6641 8.6209 15.5258 8.4826C15.3875 8.34429 15.2007 8.26549 15.0051 8.26299C14.8095 8.26048 14.6207 8.33448 14.4789 8.46919L9.10234 13.8373C9.0477 13.892 8.97746 13.9285 8.90127 13.9418C8.82507 13.9551 8.74664 13.9444 8.67672 13.9114L1.64547 10.5804C1.36932 10.4539 1.13693 10.2483 0.977716 9.98963C0.818504 9.73095 0.739634 9.43085 0.751093 9.12732C0.766363 8.81535 0.879304 8.51607 1.07395 8.2718C1.2686 8.02752 1.5351 7.85061 1.83578 7.76607L19.8302 2.30982H19.8442C20.1004 2.23784 20.3712 2.23531 20.6287 2.30251C20.8862 2.3697 21.1211 2.50419 21.3095 2.69217C21.4979 2.88016 21.6328 3.11487 21.7006 3.37224C21.7683 3.6296 21.7663 3.90034 21.6948 4.15669Z" fill="white"/>
</svg>
