<svg width="12" height="12" viewBox="0 0 12 12" fill="none" xmlns="http://www.w3.org/2000/svg">
<path d="M5.99885 11.9997C5.8286 12.0007 5.66191 11.951 5.52004 11.8569C5.37816 11.7628 5.26753 11.6285 5.20224 11.4713C5.13696 11.3141 5.11998 11.1409 5.15346 10.974C5.18695 10.8071 5.26939 10.6539 5.39028 10.534L9.93313 5.99974L5.39028 1.46546C5.24985 1.30149 5.17648 1.09056 5.18481 0.874841C5.19314 0.659119 5.28257 0.454485 5.43522 0.301833C5.58787 0.14918 5.79251 0.0597529 6.00823 0.0514205C6.22395 0.0430881 6.43487 0.116465 6.59885 0.256887L11.7417 5.39974C11.9013 5.56034 11.991 5.77759 11.991 6.00403C11.991 6.23047 11.9013 6.44772 11.7417 6.60832L6.59885 11.7512C6.43919 11.9095 6.22371 11.9988 5.99885 11.9997Z" fill="url(#paint0_linear_1_569)"/>
<path d="M0.856268 11.9996C0.686019 12.0006 0.519331 11.9509 0.377457 11.8567C0.235583 11.7626 0.124951 11.6284 0.0596648 11.4712C-0.00562099 11.3139 -0.0226023 11.1408 0.010886 10.9739C0.0443743 10.8069 0.126815 10.6538 0.247697 10.5339L4.79055 5.9996L0.247697 1.46532C0.0862938 1.30391 -0.00438164 1.085 -0.00438164 0.856744C-0.00438163 0.628485 0.0862938 0.409576 0.247697 0.248172C0.4091 0.0867692 0.62801 -0.00390625 0.856268 -0.00390625C1.08453 -0.00390625 1.30344 0.0867692 1.46484 0.248172L6.6077 5.39103C6.76734 5.55163 6.85695 5.76887 6.85695 5.99532C6.85695 6.22176 6.76734 6.439 6.6077 6.5996L1.46484 11.7425C1.38546 11.8234 1.29079 11.8879 1.18632 11.932C1.08186 11.9762 0.969675 11.9991 0.856268 11.9996Z" fill="url(#paint1_linear_1_569)"/>
<defs>
<linearGradient id="paint0_linear_1_569" x1="6.13153" y1="21.9026" x2="14.1056" y2="21.1015" gradientUnits="userSpaceOnUse">
<stop stop-color="#47479F"/>
<stop offset="1" stop-color="#9191D7"/>
</linearGradient>
<linearGradient id="paint1_linear_1_569" x1="0.990193" y1="21.9477" x2="8.97481" y2="21.1482" gradientUnits="userSpaceOnUse">
<stop stop-color="#47479F"/>
<stop offset="1" stop-color="#9191D7"/>
</linearGradient>
</defs>
</svg>
