<svg width="84" height="80" viewBox="0 0 84 80" fill="none" xmlns="http://www.w3.org/2000/svg">
<path opacity="0.3" d="M17.4648 11.0884C19.447 7.1679 24.846 6.33696 24.6723 0.803445C23.5252 1.22077 22.7455 1.42597 22.2298 1.80541C15.8472 6.30687 9.34219 10.879 3.03036 15.503C1.9988 16.2618 0.689474 17.671 0.720433 18.7145C0.808232 20.7051 2.74702 20.8105 4.39603 20.8382C9.63283 20.9991 14.9403 21.2824 20.2737 21.4692C19.672 18.3056 19.672 18.3057 10.9907 16.7042C25.3133 8.84329 42.1375 15.2148 46.8279 30.5514C45.2686 30.9618 43.7351 31.2756 42.1757 31.686C37.6909 32.9689 34.0615 35.3093 31.5186 39.3902C29.6986 42.3189 29.186 45.391 31.0504 48.4787C33.0113 51.5923 36.0575 52.2015 39.4849 51.774C46.8486 50.9519 51.7115 45.9397 52.2486 38.5261C52.2884 37.605 52.5213 36.7357 52.7612 35.4541C61.9255 37.1849 69.7665 41.1494 75.2718 48.4221C83.8643 59.6279 78.2471 70.546 70.4069 76.6239C69.4719 77.4087 68.2989 77.9226 66.655 79.035C69.727 79.5476 71.6866 78.4162 73.5496 77.259C80.8533 72.7973 84.8973 63.114 83.0006 54.7377C81.7315 49.4283 79.1152 44.8968 75.0034 41.3103C68.9546 36.0661 62.0535 32.457 54.0932 31.2558C53.2945 31.1453 52.5218 30.9382 51.53 30.776C48.9294 23.8675 45.4715 17.454 38.674 13.4586C32.0179 9.70805 24.7956 10.7751 17.4648 11.0884ZM47.9884 35.107C49.2935 42.6001 45.4413 48.0901 38.9608 48.3207C37.3825 48.4154 35.4058 47.6787 34.3572 46.5695C32.9032 45.0411 33.6658 42.9679 34.9303 41.3396C38.0597 37.0018 42.4549 35.2807 47.9884 35.107Z" fill="#FE9D51"/>
</svg>
