<svg width="120" height="120" viewBox="0 0 120 120" fill="none" xmlns="http://www.w3.org/2000/svg">
<path d="M119.976 45.8743C119.963 45.7364 119.936 45.6003 119.894 45.4684C119.866 45.3505 119.828 45.2353 119.78 45.1243C119.724 45.0157 119.657 44.9131 119.58 44.8182C119.503 44.7055 119.414 44.6015 119.314 44.5081C119.282 44.4802 119.268 44.442 119.234 44.4141L99.9991 29.4754V13.9928C99.9991 10.679 97.3125 7.99248 93.9988 7.99248H72.3236L63.645 1.25409C62.6029 0.441381 61.3193 0 59.9978 0C58.6763 0 57.3926 0.441381 56.3506 1.25409L47.6701 7.99248H25.9949C22.6812 7.99248 19.9946 10.6788 19.9946 13.9928V29.4757L0.765742 44.4143C0.731756 44.4425 0.717693 44.4804 0.685816 44.5083C0.586116 44.6017 0.496911 44.7057 0.419787 44.8184C0.342842 44.9133 0.275846 45.0159 0.219855 45.1245C0.17141 45.2355 0.133279 45.3507 0.105943 45.4686C0.0642674 45.5986 0.0367626 45.7328 0.0239075 45.8687C0.0239075 45.9107 0 45.9467 0 45.9887V113.998C0.00277164 115.27 0.414361 116.507 1.17404 117.528C1.186 117.546 1.18811 117.568 1.20194 117.584C1.216 117.6 1.246 117.618 1.26592 117.64C1.8203 118.369 2.53511 118.961 3.35503 119.37C4.17495 119.779 5.07798 119.994 5.99421 119.998H114C114.919 119.995 115.826 119.78 116.649 119.369C117.472 118.959 118.189 118.363 118.744 117.63C118.76 117.61 118.784 117.604 118.798 117.584C118.812 117.564 118.814 117.546 118.826 117.528C119.586 116.508 119.997 115.27 120 113.998V45.9943C120 45.9524 119.978 45.9163 119.976 45.8743ZM58.7967 4.41011C59.1359 4.14056 59.5564 3.99384 59.9897 3.99384C60.423 3.99384 60.8435 4.14056 61.1827 4.41011L65.7969 7.99224H54.1963L58.7967 4.41011ZM6.49814 115.998L58.7969 75.3738C59.1363 75.1047 59.5568 74.9582 59.9899 74.9582C60.4231 74.9582 60.8435 75.1047 61.1829 75.3738L113.496 115.998H6.49814ZM116 112.88L63.645 72.2175C62.6026 71.4055 61.3191 70.9645 59.9978 70.9645C58.6765 70.9645 57.3929 71.4055 56.3506 72.2175L3.99395 112.88V49.0404L36.7697 74.4918C36.9773 74.6528 37.2146 74.7714 37.4681 74.8407C37.7215 74.91 37.9862 74.9287 38.2469 74.8957C38.5075 74.8627 38.7592 74.7787 38.9874 74.6485C39.2156 74.5183 39.4159 74.3443 39.5769 74.1367C39.738 73.9291 39.8565 73.6917 39.9258 73.4383C39.9951 73.1848 40.0138 72.9202 39.9808 72.6595C39.9479 72.3988 39.8639 72.1472 39.7336 71.919C39.6034 71.6908 39.4295 71.4904 39.2218 71.3294L5.92413 45.4742L19.9948 34.5396V49.9944C19.9948 50.5248 20.2056 51.0335 20.5806 51.4086C20.9557 51.7837 21.4644 51.9944 21.9949 51.9944C22.5253 51.9944 23.034 51.7837 23.4091 51.4086C23.7842 51.0335 23.9949 50.5248 23.9949 49.9944V13.9925C23.9949 13.4621 24.2056 12.9534 24.5807 12.5783C24.9558 12.2032 25.4645 11.9925 25.9949 11.9925H93.9983C94.5287 11.9925 95.0374 12.2032 95.4125 12.5783C95.7876 12.9534 95.9983 13.4621 95.9983 13.9925V49.9944C95.9983 50.5248 96.209 51.0335 96.5841 51.4086C96.9592 51.7837 97.4679 51.9944 97.9983 51.9944C98.5288 51.9944 99.0375 51.7837 99.4126 51.4086C99.7876 51.0335 99.9984 50.5248 99.9984 49.9944V34.5396L114.069 45.4742L80.7135 71.3756C80.503 71.5355 80.3262 71.7356 80.1935 71.9643C80.0608 72.1929 79.9748 72.4456 79.9404 72.7077C79.9059 72.9699 79.9238 73.2362 79.993 73.4914C80.0621 73.7465 80.1812 73.9855 80.3433 74.1943C80.5053 74.4032 80.7072 74.5778 80.9372 74.7082C81.1672 74.8385 81.4208 74.922 81.6833 74.9537C81.9457 74.9855 82.2119 74.9649 82.4663 74.8931C82.7207 74.8213 82.9584 74.6998 83.1656 74.5356L115.999 49.0404V112.88H116Z" fill="white"/>
<path d="M83.9985 47.9937V39.9934C83.9985 26.7379 73.2528 15.9922 59.9973 15.9922C46.7418 15.9922 35.9961 26.7379 35.9961 39.9934C35.9961 53.2489 46.7418 63.9946 59.9973 63.9946C61.102 63.9946 61.9973 63.0993 61.9973 61.9946C61.9973 60.8899 61.102 59.9946 59.9973 59.9946C48.9511 59.9946 39.9964 51.0398 39.9964 39.9936C39.9964 28.9475 48.9511 19.9927 59.9973 19.9927C71.0435 19.9927 79.9983 28.9475 79.9983 39.9936V47.994C79.9983 50.2033 78.2073 51.9942 75.998 51.9942C73.7886 51.9942 71.9977 50.2033 71.9977 47.994V39.9936C71.9977 38.889 71.1023 37.9936 69.9977 37.9936C68.893 37.9936 67.9976 38.889 67.9976 39.9936C67.9976 44.4121 64.4157 47.994 59.9973 47.994C55.5789 47.994 51.997 44.4121 51.997 39.9936C51.997 35.5752 55.5789 31.9933 59.9973 31.9933C61.102 31.9933 61.9973 31.098 61.9973 29.9933C61.9973 28.8886 61.102 27.9933 59.9973 27.9933C54.6263 27.9813 49.9013 31.5395 48.4294 36.705C46.9574 41.8704 49.0967 47.3848 53.6672 50.2059C58.2378 53.027 64.126 52.4677 68.0837 48.8364C68.5191 53.0661 72.1955 56.2111 76.4417 55.9863C80.688 55.7613 84.0119 52.246 83.9985 47.9937Z" fill="white"/>
</svg>
